<?xml version="1.0" standalone="no"?><!DOCTYPE svg PUBLIC "-//W3C//DTD SVG 1.1//EN" "http://www.w3.org/Graphics/SVG/1.1/DTD/svg11.dtd"><svg t="1533622545360" class="icon" style="" viewBox="0 0 1024 1024" version="1.1" xmlns="http://www.w3.org/2000/svg" p-id="28466" xmlns:xlink="http://www.w3.org/1999/xlink" width="200" height="200"><defs><style type="text/css"></style></defs><path d="M512 0C229.222 0 0 229.222 0 512s229.222 512 512 512 512-229.222 512-512S794.778 0 512 0z m202.974 546.133H580.267a34.133 34.133 0 0 0-34.134 34.134v134.707c0 16.998-11.622 32.768-28.399 35.499a34.15 34.15 0 0 1-39.867-33.673V580.267a34.133 34.133 0 0 0-34.134-34.134H309.026c-16.998 0-32.768-11.622-35.499-28.399a34.15 34.15 0 0 1 33.673-39.867h136.533a34.133 34.133 0 0 0 34.134-34.134V309.026c0-16.998 11.622-32.768 28.399-35.499a34.185 34.185 0 0 1 39.867 33.673v136.533a34.133 34.133 0 0 0 34.134 34.134H716.8a34.15 34.15 0 0 1 33.673 39.867c-2.748 16.794-18.5 28.4-35.5 28.4z" fill="#00ABEB" p-id="28467"></path></svg>