<?xml version="1.0" standalone="no"?><!DOCTYPE svg PUBLIC "-//W3C//DTD SVG 1.1//EN" "http://www.w3.org/Graphics/SVG/1.1/DTD/svg11.dtd"><svg t="1533805994462" class="icon" style="" viewBox="0 0 1024 1024" version="1.1" xmlns="http://www.w3.org/2000/svg" p-id="3284" xmlns:xlink="http://www.w3.org/1999/xlink" width="200" height="200"><defs><style type="text/css"></style></defs><path d="M512 462.774857L339.602286 290.377143a34.816 34.816 0 1 0-49.225143 49.225143L462.774857 512 290.377143 684.397714a34.816 34.816 0 1 0 49.225143 49.225143L512 561.225143l172.397714 172.397714a34.816 34.816 0 1 0 49.225143-49.225143L561.225143 512l172.397714-172.397714a34.816 34.816 0 1 0-49.225143-49.225143L512 462.774857z m0 501.979429A452.754286 452.754286 0 1 1 512 59.245714a452.754286 452.754286 0 0 1 0 905.508572z" fill="#CCCCCC" p-id="3285"></path></svg>