<?xml version="1.0" standalone="no"?><!DOCTYPE svg PUBLIC "-//W3C//DTD SVG 1.1//EN" "http://www.w3.org/Graphics/SVG/1.1/DTD/svg11.dtd"><svg class="icon" width="200px" height="200.00px" viewBox="0 0 1024 1024" version="1.1" xmlns="http://www.w3.org/2000/svg"><path d="M540.444444 364.088889l0-68.266667-88.029867-19.5584c-3.003733-9.386667-6.826667-18.386489-11.286756-27.022222l48.469333-76.174222-48.275911-48.275911-76.174222 48.469333c-8.635733-4.460089-17.635556-8.283022-27.022222-11.286756L318.577778 73.955556l-68.266667 0-19.5584 88.029867c-9.386667 3.003733-18.386489 6.826667-27.022222 11.286756l-76.174222-48.469333-48.275911 48.275911 48.469333 76.174222c-4.460089 8.635733-8.283022 17.635556-11.286756 27.022222L28.444444 295.822222l0 68.266667 88.029867 19.5584c3.003733 9.386667 6.826667 18.386489 11.286756 27.022222l-48.469333 76.174222 48.275911 48.275911 76.174222-48.469333c8.635733 4.460089 17.635556 8.283022 27.022222 11.286756L250.311111 585.955556l68.266667 0 19.5584-88.029867c9.386667-3.003733 18.386489-6.826667 27.022222-11.286756l76.174222 48.469333 48.275911-48.275911-48.469333-76.174222c4.460089-8.635733 8.283022-17.635556 11.286756-27.022222L540.444444 364.088889zM284.444444 415.288889c-47.126756 0-85.333333-38.206578-85.333333-85.333333s38.206578-85.333333 85.333333-85.333333 85.333333 38.206578 85.333333 85.333333S331.5712 415.288889 284.444444 415.288889zM650.490311 860.182756l21.515378-52.542578-61.599289-42.8032c0.648533-8.169244 0.534756-16.304356-0.170667-24.348444l61.314844-43.360711-21.947733-52.371911-73.910044 13.312c-5.245156-6.144-10.9568-11.935289-17.237333-17.2032l12.686222-73.921422-52.542578-21.515378-42.8032 61.599289c-8.169244-0.648533-16.304356-0.534756-24.348444 0.170667l-43.360711-61.314844-52.371911 21.947733 13.312 73.910044c-6.144 5.245156-11.935289 10.9568-17.2032 17.237333l-73.921422-12.686222-21.515378 52.542578 61.599289 42.8032c-0.648533 8.169244-0.534756 16.304356 0.170667 24.348444l-61.314844 43.360711 21.947733 52.371911 73.910044-13.312c5.245156 6.144 10.9568 11.935289 17.237333 17.2032l-12.686222 73.921422 52.542578 21.515378 42.8032-61.599289c8.169244 0.648533 16.304356 0.534756 24.348444-0.170667l43.360711 61.314844 52.371911-21.947733-13.312-73.910044c6.144-5.233778 11.935289-10.9568 17.2032-17.237333L650.490311 860.182756zM437.293511 818.915556c-36.272356-14.848-53.646222-56.297244-38.798222-92.580978s56.297244-53.646222 92.580978-38.798222c36.272356 14.848 53.646222 56.297244 38.798222 92.580978C515.026489 816.401067 473.577244 833.774933 437.293511 818.915556zM988.603733 316.199822l-18.102044-55.819378-77.175467 7.350044c-4.937956-6.883556-10.467556-13.220978-16.395378-19.103289l19.433244-75.138844-52.280889-26.669511-49.436444 59.835733c-8.237511-1.353956-16.611556-2.104889-25.088-2.059378l-39.344356-66.798933-55.819378 18.102044 7.350044 77.175467c-6.883556 4.937956-13.220978 10.467556-19.103289 16.395378l-75.138844-19.433244-26.669511 52.280889 59.835733 49.436444c-1.353956 8.237511-2.104889 16.611556-2.059378 25.088L551.822222 396.174222l18.102044 55.819378 77.175467-7.350044c4.937956 6.883556 10.456178 13.220978 16.395378 19.103289l-19.433244 75.138844 52.280889 26.669511 49.436444-59.835733c8.237511 1.353956 16.611556 2.104889 25.088 2.059378l39.344356 66.798933 55.819378-18.102044-7.350044-77.175467c6.883556-4.937956 13.220978-10.467556 19.103289-16.395378l75.138844 19.433244 26.669511-52.280889-59.835733-49.436444c1.353956-8.237511 2.104889-16.611556 2.059378-25.088L988.603733 316.199822zM792.849067 425.961244c-38.536533 12.504178-79.917511-8.612978-92.410311-47.149511-12.504178-38.536533 8.612978-79.917511 47.149511-92.410311 38.536533-12.504178 79.917511 8.612978 92.410311 47.149511S831.3856 413.468444 792.849067 425.961244z" /></svg>
