<?xml version="1.0" standalone="no"?><!DOCTYPE svg PUBLIC "-//W3C//DTD SVG 1.1//EN" "http://www.w3.org/Graphics/SVG/1.1/DTD/svg11.dtd"><svg class="icon" width="200px" height="112.16px" viewBox="0 0 1826 1024" version="1.1" xmlns="http://www.w3.org/2000/svg"><path fill="#333333" d="M1147.934 420.014c17.793 0 32.381-14.587 32.381-32.22v-43.121c0-17.793-14.587-32.381-32.381-32.381h-22.282c-17.793 0-36.228-11.862-40.716-26.289-4.649-14.267-12.503-59.151 0-71.815l15.87-15.709c12.664-12.664 12.664-33.182 0-45.846l-30.457-30.457c-12.503-12.664-33.182-12.664-45.686 0l-15.87 15.87c-12.503 12.503-33.663 17.152-46.968 10.42-13.145-6.893-50.976-33.343-50.976-51.136v-22.282c0-17.793-14.587-32.381-32.381-32.381h-43.121c-17.793 0-32.381 14.587-32.381 32.381v22.282c0 17.793-11.702 36.228-26.129 40.716-14.427 4.649-59.311 12.503-71.815 0l-15.87-15.87c-12.664-12.664-33.182-12.664-45.846 0l-30.297 30.457c-12.664 12.664-12.664 33.182 0 45.686l15.709 15.87c12.664 12.664 17.312 33.663 10.42 46.968-6.893 13.145-33.343 51.136-51.136 51.136l-22.282-0.16c-17.793 0-32.381 14.587-32.381 32.381v43.121c0 17.793 14.587 32.381 32.381 32.381h22.282c17.793 0 36.228 11.702 40.877 26.129s12.503 59.311-0.16 71.815l-15.87 15.87c-12.664 12.664-12.664 33.182 0 45.686l30.457 30.617c12.664 12.503 33.182 12.503 45.686 0l16.030-15.87c12.503-12.503 33.663-17.312 46.808-10.42 13.305 6.893 50.976 33.182 50.976 51.136v22.282c0 17.793 14.587 32.381 32.381 32.381h43.121c17.793 0 32.381-14.587 32.381-32.381v-22.282c0-17.793 11.862-36.228 26.289-40.877 14.267-4.488 59.151-12.343 71.815 0.16l15.87 15.87c12.503 12.503 33.182 12.503 45.686 0l30.457-30.457c12.664-12.664 12.664-33.182 0-45.846l-15.87-15.87c-12.503-12.503-17.152-33.663-10.259-46.808 6.893-13.305 33.182-51.136 50.976-51.136h22.282zM856.828 506.255c-77.425 0-140.263-62.678-140.263-140.103s62.838-140.263 140.263-140.263 140.263 62.838 140.263 140.263-62.838 140.103-140.263 140.103zM1358.248 813.551c8.817 0 16.19-7.214 16.19-16.19v-21.48c0-8.977-7.374-16.19-16.19-16.19h-11.061c-8.977 0-18.114-5.931-20.518-13.145-2.244-7.053-6.252-29.495 0.16-35.907l7.855-7.855c6.252-6.252 6.252-16.511 0-22.923l-15.229-15.229c-6.252-6.252-16.511-6.252-22.763 0l-8.015 8.015c-6.252 6.252-16.832 8.496-23.404 5.13-6.572-3.527-25.648-16.671-25.648-25.488v-11.221c0-8.977-7.214-16.19-16.19-16.19h-21.48c-8.817 0-16.19 7.214-16.19 16.19v11.221c0 8.817-5.931 17.954-12.984 20.358-7.214 2.244-29.656 6.252-36.068 0l-7.855-8.015c-6.252-6.412-16.511-6.412-22.923 0l-15.229 15.229c-6.252 6.252-6.252 16.511 0 22.923l8.015 7.855c6.252 6.412 8.496 16.832 5.13 23.564-3.527 6.572-16.671 25.488-25.488 25.488h-11.221c-8.977 0-16.19 7.214-16.19 16.19v21.48c0 8.977 7.214 16.19 16.19 16.19h11.221c8.817 0 17.954 5.931 20.358 13.145 2.244 7.053 6.252 29.495 0 35.907l-8.015 7.855c-6.252 6.412-6.252 16.671 0 22.923l15.229 15.229c6.412 6.252 16.671 6.252 22.923 0l7.855-7.855c6.412-6.412 16.832-8.656 23.564-5.29 6.572 3.527 25.327 16.671 25.327 25.488v11.221c0 8.977 7.374 16.19 16.19 16.19h21.641c8.977 0 16.19-7.214 16.19-16.19v-11.221c0-8.817 5.931-17.954 13.145-20.358 7.214-2.244 29.656-6.252 35.907 0.16l8.015 7.855c6.252 6.252 16.511 6.252 22.763 0l15.229-15.229c6.252-6.252 6.252-16.511 0-22.923l-7.855-7.855c-6.412-6.412-8.656-16.832-5.29-23.404 3.527-6.733 16.671-25.648 25.488-25.648h11.221zM1266.717 786.621c0 29.816-24.205 53.861-53.861 53.861-29.976 0-54.021-24.045-54.021-53.861s24.045-53.861 54.021-53.861c29.656 0 53.861 24.045 53.861 53.861z" /></svg>