<?xml version="1.0" standalone="no"?><!DOCTYPE svg PUBLIC "-//W3C//DTD SVG 1.1//EN" "http://www.w3.org/Graphics/SVG/1.1/DTD/svg11.dtd"><svg class="icon" width="200px" height="200.00px" viewBox="0 0 1024 1024" version="1.1" xmlns="http://www.w3.org/2000/svg"><path fill="#333333" d="M999.044335 405.283137l-111.90805-37.325804c-2.210453-5.740606-4.599786-11.444706-7.166175-17.148806l52.798973-105.524934c7.0238-14.045775 4.278531-31.015701-6.84492-42.139152L822.68087 99.899323c-11.123451-11.158132-28.05687-13.86872-42.139152-6.84492l-105.56144 52.762467c-5.7041-2.531708-11.4082-4.919216-17.112299-7.129668l-37.325804-111.90805C615.586453 11.87913 601.646545 1.825312 585.925134 1.825312l-146.024955 0c-15.721412 0-29.661319 10.053818-34.617041 24.955665L367.957333 138.687201c-5.7041 2.210453-11.444706 4.599786-17.112299 7.129668L245.283594 93.054403c-14.045775-7.058481-31.015701-4.313212-42.139152 6.84492L99.899323 203.144442c-11.123451 11.123451-13.86872 28.093376-6.84492 42.139152l52.762467 105.56144c-2.531708 5.667594-4.919216 11.4082-7.129668 17.112299l-111.90805 37.325804C11.87913 410.238859 1.825312 424.178766 1.825312 439.900178l0 146.024955c0 15.721412 10.053818 29.661319 24.955665 34.617041l111.90805 37.325804c2.210453 5.7041 4.599786 11.444706 7.166175 17.148806L93.054403 780.541718c-7.0238 14.045775-4.278531 31.015701 6.84492 42.139152l103.243294 103.243294c11.158132 11.158132 28.128057 13.903401 42.139152 6.84492l105.56144-52.762467c5.7041 2.531708 11.4082 4.919216 17.112299 7.129668l37.325804 111.90805c4.955722 14.901847 18.895629 24.955665 34.617041 24.955665l146.024955 0c15.721412 0 29.661319-10.053818 34.651722-24.955665l37.254617-111.871544c5.7041-2.245134 11.444706-4.634467 17.148806-7.166175l105.56144 52.762467c14.011094 7.0238 30.98102 4.313212 42.139152-6.84492l103.243294-103.243294c11.123451-11.123451 13.86872-28.093376 6.84492-42.139152l-52.762467-105.56144c2.531708-5.7041 4.919216-11.4082 7.129668-17.112299l111.90805-37.325804c14.901847-4.955722 24.955665-18.895629 24.955665-34.617041l0-146.024955C1024 424.178766 1013.946182 410.238859 999.044335 405.283137zM950.987522 559.615087l-103.672242 34.580535c-10.873383 3.60134-19.430446 12.156578-23.066467 23.029961-4.634467 13.86872-10.517447 27.985683-17.504742 41.996777-5.098096 10.26738-5.098096 22.318089 0.036506 32.585469l48.912884 97.860449-66.025184 66.025184-97.860449-48.912884c-10.230873-5.132777-22.35277-5.132777-32.585469-0.036506-14.011094 6.987294-28.164563 12.870275-41.996777 17.504742-10.909889 3.636021-19.465127 12.193084-23.101148 23.066467L559.615087 950.987522l-93.404863 0-34.580535-103.672242c-3.60134-10.873383-12.156578-19.430446-23.029961-23.066467-13.86872-4.634467-27.985683-10.517447-41.996777-17.504742-10.26738-5.098096-22.389276-5.098096-32.585469 0.036506l-97.860449 48.912884-66.025184-66.025184 48.947565-97.860449c5.132777-10.26738 5.132777-22.389276 0-32.656656-6.952613-13.903401-12.833768-28.022189-17.504742-41.92559-3.636021-10.873383-12.193084-19.430446-23.066467-23.029961L74.83779 559.615087l0-93.404863 103.672242-34.580535c10.873383-3.60134 19.430446-12.156578 23.066467-23.029961 4.670973-13.939907 10.552128-28.022189 17.468235-41.854403 5.169283-10.303886 5.169283-22.389276 0.036506-32.691337l-48.947565-97.896955 66.025184-66.025184 97.896955 48.947565c10.26738 5.132777 22.35277 5.169283 32.691337-0.036506 13.832214-6.916107 27.914496-12.799087 41.854403-17.468235 10.873383-3.636021 19.430446-12.193084 23.029961-23.066467L466.210225 74.83779l93.404863 0 34.580535 103.672242c3.60134 10.873383 12.156578 19.430446 23.029961 23.066467 13.86872 4.634467 27.985683 10.517447 41.996777 17.504742 10.230873 5.06159 22.35277 5.06159 32.585469-0.036506l97.860449-48.912884 66.025184 66.025184-48.947565 97.860449c-5.132777 10.26738-5.132777 22.389276 0 32.656656 6.952613 13.903401 12.833768 28.022189 17.504742 41.92559 3.636021 10.873383 12.193084 19.430446 23.066467 23.029961l103.672242 34.580535L950.989348 559.615087zM512.912656 330.381462c-100.784599 0-182.531194 81.746595-182.531194 182.531194 0 100.81928 81.746595 182.531194 182.531194 182.531194 100.81928 0 182.531194-81.711914 182.531194-182.531194C695.44385 412.128057 613.731936 330.381462 512.912656 330.381462zM512.912656 622.431373c-60.392271 0-109.518717-49.126446-109.518717-109.518717s49.126446-109.518717 109.518717-109.518717 109.518717 49.126446 109.518717 109.518717S573.304927 622.431373 512.912656 622.431373z" /></svg>