<?xml version="1.0" standalone="no"?><!DOCTYPE svg PUBLIC "-//W3C//DTD SVG 1.1//EN" "http://www.w3.org/Graphics/SVG/1.1/DTD/svg11.dtd"><svg t="1533541555358" class="icon" style="" viewBox="0 0 1024 1024" version="1.1" xmlns="http://www.w3.org/2000/svg" p-id="8863" xmlns:xlink="http://www.w3.org/1999/xlink" width="200" height="200"><defs><style type="text/css"></style></defs><path d="M712.38656 7.3728l0.3584 0.36864L927.39584 232.1408c0.11264 0.1024 0.22528 0.22528 0.32768 0.34816l6.63552 6.93248v707.66592c0 41.9328-34.11968 76.04224-76.06272 76.04224H163.62496c-41.94304 0-76.06272-34.11968-76.06272-76.04224V76.0832C87.552 34.12992 121.68192 0 163.62496 0h541.696l7.0656 7.3728zM322.56 61.44v64h128V61.44H322.56z m128 64v64H578.56v-64H450.56zM322.56 189.44v64h128V189.44H322.56z m128 64V317.44H578.56v-64H450.56zM322.56 317.44v64h128V317.44H322.56z m128 64v64H578.56v-64H450.56zM322.56 445.44v64h128V445.44H322.56z m128 64V573.44H578.56v-64H450.56zM322.56 845.44512c0 26.368 21.62688 47.99488 48.00512 47.99488h160c26.368 0 47.99488-21.62688 47.99488-48.00512V685.45536a48.18944 48.18944 0 0 0-48.00512-48.00512H450.56V573.44H322.56v272.00512z m192-80.00512V829.44h-128v-64h128z" fill="#1296db" p-id="8864"></path></svg>