<?xml version="1.0" standalone="no"?><!DOCTYPE svg PUBLIC "-//W3C//DTD SVG 1.1//EN" "http://www.w3.org/Graphics/SVG/1.1/DTD/svg11.dtd"><svg class="icon" width="200px" height="200.00px" viewBox="0 0 1024 1024" version="1.1" xmlns="http://www.w3.org/2000/svg"><path d="M897.133056 110.717637 126.864898 110.717637c-35.450397 0-64.187905 28.709879-64.187905 64.186881l0 513.473561c0 35.45142 28.737508 64.193021 64.187905 64.193021l320.945663 0 0 96.283904L287.333636 848.855004c-17.704221 0-32.086789 14.387685-32.086789 32.091906l0 32.091906 513.509377 0 0-32.091906c0-17.709337-14.386662-32.091906-32.095999-32.091906L576.187393 848.855004l0-96.283904 320.940546 0c35.45142 0 64.194044-28.742625 64.194044-64.193021L961.321984 174.904519c0-35.477003-28.743648-64.186881-64.194044-64.186881l0 0L897.133056 110.717637zM479.908606 688.37808c0-17.709337 14.381545-32.086789 32.090882-32.086789 17.708314 0 32.090882 14.383592 32.090882 32.086789 0 17.742083-14.383592 32.128745-32.090882 32.128745C494.290151 720.507848 479.908606 706.120163 479.908606 688.37808L479.908606 688.37808 479.908606 688.37808zM126.864898 624.191198 126.864898 174.904519l770.268158 0 0 449.28668L126.864898 624.191198 126.864898 624.191198zM126.864898 624.191198" /></svg>
