<?xml version="1.0" standalone="no"?><!DOCTYPE svg PUBLIC "-//W3C//DTD SVG 1.1//EN" "http://www.w3.org/Graphics/SVG/1.1/DTD/svg11.dtd"><svg t="1534750877970" class="icon" style="" viewBox="0 0 1024 1024" version="1.1" xmlns="http://www.w3.org/2000/svg" p-id="3510" xmlns:xlink="http://www.w3.org/1999/xlink" width="200" height="200"><defs><style type="text/css"></style></defs><path d="M723.626667 853.333333 614.4 853.333333l0-109.226667 112.64 0 0-71.68L71.68 672.426667 71.68 153.6l853.333333 0L925.013333 443.733333l58.026667 0c3.413333 0 10.24 0 13.653333 3.413333L996.693333 129.706667c0-27.306667-20.48-47.786667-47.786667-47.786667L47.786667 81.92C20.48 81.92 0 102.4 0 129.706667l0 566.613333c0 27.306667 20.48 47.786667 47.786667 47.786667l337.92 0L385.706667 853.333333 256 853.333333c-23.893333 0-44.373333 20.48-44.373333 44.373333 0 23.893333 20.48 44.373333 44.373333 44.373333l481.28 0c-6.826667-10.24-10.24-20.48-10.24-30.72L727.04 853.333333 723.626667 853.333333z" fill="#8a8a8a" p-id="3511"></path><path d="M993.28 467.626667l-201.386667 0c-17.066667 0-30.72 13.653333-30.72 30.72l0 409.6c0 17.066667 13.653333 30.72 30.72 30.72l201.386667 0c17.066667 0 30.72-13.653333 30.72-30.72l0-409.6C1024 484.693333 1010.346667 467.626667 993.28 467.626667zM890.88 921.6c-6.826667 0-13.653333-6.826667-13.653333-13.653333 0-6.826667 6.826667-13.653333 13.653333-13.653333s13.653333 6.826667 13.653333 13.653333C904.533333 914.773333 897.706667 921.6 890.88 921.6zM1003.52 877.226667l-225.28 0 0-341.333333 225.28 0L1003.52 877.226667z" fill="#8a8a8a" p-id="3512"></path></svg>