<?xml version="1.0" standalone="no"?><!DOCTYPE svg PUBLIC "-//W3C//DTD SVG 1.1//EN" "http://www.w3.org/Graphics/SVG/1.1/DTD/svg11.dtd"><svg t="1533716797389" class="icon" style="" viewBox="0 0 1024 1024" version="1.1" xmlns="http://www.w3.org/2000/svg" p-id="3269" xmlns:xlink="http://www.w3.org/1999/xlink" width="200" height="200"><defs><style type="text/css"></style></defs><path d="M211.25894928 445.16799951c-36.90675879 0-66.83115757 29.91343744-66.83115756 66.83200049 0 36.89664038 29.92355585 66.83115757 66.83115756 66.83115757 36.90760171 0 66.83200049-29.93451718 66.83200049-66.83115757C278.09094976 475.08143696 248.16739392 445.16799951 211.25894928 445.16799951zM511.99957813 445.16799951c-36.90675879 0-66.83115757 29.91343744-66.83115757 66.83200049 0 36.89664038 29.92355585 66.83115757 66.83115756 66.83115757 36.90760171 0 66.83200049-29.93451718 66.8320005-66.83115757C578.83157862 475.08143696 548.90717983 445.16799951 511.99957813 445.16799951zM812.74020779 445.16799951c-36.90675879 0-66.83115757 29.91343744-66.83115755 66.83200049 0 36.89664038 29.92355585 66.83115757 66.83115755 66.83115757s66.83115757-29.93451718 66.83115757-66.83115757C879.57052161 475.08143696 849.64696576 445.16799951 812.74020779 445.16799951z" p-id="3270"></path></svg>