<?xml version="1.0" standalone="no"?><!DOCTYPE svg PUBLIC "-//W3C//DTD SVG 1.1//EN" "http://www.w3.org/Graphics/SVG/1.1/DTD/svg11.dtd"><svg t="1533874885819" class="icon" style="" viewBox="0 0 1024 1024" version="1.1" xmlns="http://www.w3.org/2000/svg" p-id="34060" xmlns:xlink="http://www.w3.org/1999/xlink" width="200" height="200"><defs><style type="text/css"></style></defs><path d="M320 448h-256C28.6976 448 0 476.6976 0 512v448c0 35.3024 28.6976 64 64 64h256c35.3024 0 64-28.6976 64-64V512c0-35.3024-28.6976-64-64-64z m0 512h-256V512h256v448zM960 0h-256C668.6976 0 640 28.6976 640 64V512c0 35.3024 28.6976 64 64 64h256c35.3024 0 64-28.6976 64-64V64C1024 28.6976 995.3024 0 960 0z m0 512h-256V64h256V512z m-896-128H512c35.3024 0 64-28.6976 64-64v-256C576 28.6976 547.3024 0 512 0H64C28.6976 0 0 28.6976 0 64v256C0 355.3024 28.6976 384 64 384z m0-320H512v256H64v-256z m896 576H512c-35.3024 0-64 28.6976-64 64v256c0 35.3024 28.6976 64 64 64h448c35.3024 0 64-28.6976 64-64v-256c0-35.3024-28.6976-64-64-64z m0 320H512v-256h448v256zM512 448c-35.3024 0-64 28.6976-64 64s28.6976 64 64 64 64-28.6976 64-64-28.6976-64-64-64z" p-id="34061"></path></svg>
