<?xml version="1.0" standalone="no"?><!DOCTYPE svg PUBLIC "-//W3C//DTD SVG 1.1//EN" "http://www.w3.org/Graphics/SVG/1.1/DTD/svg11.dtd"><svg t="1533541587402" class="icon" style="" viewBox="0 0 1024 1024" version="1.1" xmlns="http://www.w3.org/2000/svg" p-id="9157" xmlns:xlink="http://www.w3.org/1999/xlink" width="200" height="200"><defs><style type="text/css"></style></defs><path d="M691.497628 0H153.262227C120.011356 0 93.515935 27.535501 93.515935 61.305145v901.38971c0 33.769643 27.015461 61.305145 59.746292 61.305145h717.475546c33.249603 0 59.746292-27.535501 59.746292-61.305145V259.766487L691.497628 0M512.26002 283.145471c0 12.469552-9.870619 22.860212-22.340171 22.860212H280.547806c-12.468284 0-22.340172-10.390659-22.340171-22.860212 0-12.468284 9.871888-22.858944 22.340171-22.858943h209.372043c11.948244-0.52004 22.340172 9.870619 22.340171 22.858943M258.207635 756.440518c0-12.468284 9.871888-22.857675 22.340171-22.857675H728.903748c12.469552 0 22.340172 10.389391 22.340172 22.857675S741.373301 779.299462 728.903748 779.299462H280.547806c-12.468284 0-22.340172-9.870619-22.340171-22.858944M728.903748 535.120232H280.547806c-12.468284 0-22.340172-10.390659-22.340171-22.858943s9.871888-22.858944 22.340171-22.858944H728.903748c12.469552 0 22.340172 10.390659 22.340172 22.858944s-9.870619 22.858944-22.340172 22.858943M721.112022 259.766487c-16.624802 0-30.134435-13.507096-30.134434-30.651938V61.305145L870.737773 259.766487H721.112022" fill="" p-id="9158"></path></svg>