<?xml version="1.0" standalone="no"?><!DOCTYPE svg PUBLIC "-//W3C//DTD SVG 1.1//EN" "http://www.w3.org/Graphics/SVG/1.1/DTD/svg11.dtd"><svg t="1533541595753" class="icon" style="" viewBox="0 0 1024 1024" version="1.1" xmlns="http://www.w3.org/2000/svg" p-id="9281" xmlns:xlink="http://www.w3.org/1999/xlink" width="200" height="200"><defs><style type="text/css"></style></defs><path d="M897.359 267.4v622.707c0 38.358-31.095 69.453-69.453 69.453H195.833c-38.358 0-69.453-31.095-69.453-69.453V133.893c0-38.358 31.095-69.453 69.453-69.453h501.49v147.397c0 30.686 24.876 55.562 55.562 55.562h144.474z" fill="#33CC99" p-id="9282"></path><path d="M665.736 414.007c17.529 0 31.79 14.261 31.79 31.79v261.564c0 17.529-14.261 31.79-31.79 31.79H351.712c-17.529 0-31.79-14.261-31.79-31.79V445.797c0-17.529 14.261-31.79 31.79-31.79h314.024m0-30H351.712c-34.126 0-61.79 27.664-61.79 61.79v261.564c0 34.126 27.664 61.79 61.79 61.79h314.024c34.126 0 61.79-27.664 61.79-61.79V445.797c0-34.126-27.664-61.79-61.79-61.79z" fill="#FFFFFF" p-id="9283"></path><path d="M697.701 67.132v154.747a58.124 58.124 0 0 0 16.564 40.635l182.977 187.152V269.064L697.701 67.132z" fill="#1CA574" p-id="9284"></path><path d="M697.323 64.702v163.986c0 21.38 17.332 38.712 38.713 38.712H897.62L697.323 64.702z" fill="#95EFCE" p-id="9285"></path><path d="M434.416 549.942c17.171 0 31.092-13.922 31.092-31.092 0-17.178-13.921-31.094-31.092-31.094-17.155 0-31.093 13.916-31.093 31.094 0 17.17 13.938 31.092 31.093 31.092zM574.331 530.509l-92.138 129.926-47.777-66.329-77.731 111.298h310.924l-93.278-174.895z" fill="#FFFFFF" p-id="9286"></path></svg>