<?xml version="1.0" standalone="no"?><!DOCTYPE svg PUBLIC "-//W3C//DTD SVG 1.1//EN" "http://www.w3.org/Graphics/SVG/1.1/DTD/svg11.dtd"><svg t="1535016744509" class="icon" style="" viewBox="0 0 1024 1024" version="1.1" xmlns="http://www.w3.org/2000/svg" p-id="2203" xmlns:xlink="http://www.w3.org/1999/xlink" width="200" height="200"><defs><style type="text/css"></style></defs><path d="M230.776 818.992c0 56.512 45.623 102.616 102.138 102.616h358.172c56.515 0 102.533-46.104 102.533-102.616V409.954H230.776v409.038z m383.756-332.575c0-14.115 11.457-25.582 25.584-25.582 14.127 0 25.584 11.467 25.584 25.582V793.41c0 14.14-11.457 25.583-25.584 25.583-14.127 0-25.584-11.443-25.584-25.583V486.417z m-127.918 0c0-14.115 11.456-25.582 25.584-25.582 14.127 0 25.583 11.467 25.583 25.582V793.41c0 14.14-11.456 25.583-25.583 25.583-14.128 0-25.584-11.443-25.584-25.583V486.417z m-127.919 0c0-14.115 11.457-25.582 25.584-25.582 14.127 0 25.584 11.467 25.584 25.582V793.41c0 14.14-11.457 25.583-25.584 25.583-14.127 0-25.584-11.443-25.584-25.583V486.417z m434.726-281.124H640.116v-51.451c0-28.256-23.108-50.88-51.365-50.88H435.25c-28.258 0-50.97 22.624-50.97 50.88v51.45h-153.7c-28.258 0-50.97 22.625-50.97 50.88v51.166c0 28.256 22.687 51.45 50.931 51.45h562.932c28.231 0 51.314-23.194 51.314-51.45v-51.166c0-28.254-23.108-50.88-51.365-50.88z m-204.472 0H435.446v-25.869c0-14.139 11.258-25.297 25.387-25.297h102.334c14.128 0 25.782 11.158 25.782 25.297v25.869z" fill="#ffffff" p-id="2204"></path></svg>
