<?xml version="1.0" standalone="no"?><!DOCTYPE svg PUBLIC "-//W3C//DTD SVG 1.1//EN" "http://www.w3.org/Graphics/SVG/1.1/DTD/svg11.dtd"><svg class="icon" width="200px" height="200.00px" viewBox="0 0 1024 1024" version="1.1" xmlns="http://www.w3.org/2000/svg"><path d="M599.28 550.325l-88.020-226.372-96.119 180.845-53.647-55.186-90.776 56.565 25.607 14.764 58.172-36.255 70.188 72.267 81.272-152.872 89.862 231.24 76.63-161.338 31.234 66.458 34.24-5.74-65.283-138.841zM867.173 725.739v-469.067c0-17.551-13.084-31.741-29.245-31.741h-650.815c-16.16 0-29.244 14.191-29.244 31.741v469.067h-95.912v38.799c0 17.556 13.104 31.74 29.245 31.74h845.83c16.161 0 29.265-14.185 29.265-31.74v-38.799h-99.123zM574.024 739.059h-119.8v-20.597h119.8v20.597zM807.004 687.173h-588.945v-396.806h588.945v396.806zM807.004 687.173z" /></svg>
