<?xml version="1.0" standalone="no"?><!DOCTYPE svg PUBLIC "-//W3C//DTD SVG 1.1//EN" "http://www.w3.org/Graphics/SVG/1.1/DTD/svg11.dtd"><svg class="icon" width="200px" height="200.00px" viewBox="0 0 1024 1024" version="1.1" xmlns="http://www.w3.org/2000/svg"><path d="M679.747004 323.8232c-8.329712-90.083691-84.034928-160.613024-176.288029-160.613024-92.25003 0-167.957293 70.543659-176.259376 160.656003-90.88187 3.124154-165.790954 75.293847-170.525792 167.758772-4.934382 95.702666 67.121723 177.313382 161.825642 185.344289l0 0.585331 5.64865 0c0.084934 0 0.170892 0.027629 0.285502 0.027629 1.882883 0.084934 3.737114 0.028653 5.562692 0l0-0.027629 225.921449 0c-2.139733-2.426259-4.278443-4.835122-5.847172-8.05956-1.541099-3.081175-2.025123-6.03239-2.25332-8.942673-1.284249-2.267647-2.366907-4.563946-3.02387-7.117095L324.289316 653.435243c-83.721797-5.048993-147.990542-76.619028-143.682423-160.554696 4.335748-84.450391 76.334549-149.402705 160.76959-145.05263 1.768273 0.057305 3.508917 0.469698 5.248537 0.812505-0.057305-1.341554-0.11461-2.666736-0.14224-3.979638 1.425466-0.071631 2.851954-0.157589 4.307096-0.157589-0.199545-1.397836-0.456395-2.76702-0.456395-4.193509 0-84.549651 68.574818-153.110143 153.12447-153.110143 84.550675 0 153.126516 68.561515 153.126516 153.110143 0 1.796926-0.314155 3.523243-0.571005 5.291516 1.255597-0.127913 2.509147-0.213871 3.765767-0.328481 0.113587 1.12666 0.284479 2.267647 0.342808 3.366677 1.36816-0.242524 2.738367-0.598634 4.13518-0.655939 84.350107-5.420453 157.176762 58.648748 162.566516 143.041834 4.050246 63.467497-31.662117 119.492488-85.346807 145.994072 0.084934 0.925069 0.512676 1.597381 0.512676 2.579755l0 1.213641c0 0.455371-0.143263 0.827855-0.229221 1.212618 0 0.455371 0.229221 0.756223 0.229221 1.225921l0 1.212618c0 0.784876-0.341784 1.311879-0.400113 2.054799 1.311879 5.847172 1.541099 11.866259-0.855484 17.428951 12.493545-4.977361 24.560372-10.782577 35.370579-18.414395 48.550763-34.329876 78.731132-92.335988 74.652234-156.034752C844.909647 397.6046 769.945305 326.633199 679.747004 323.8232zM641.779274 527.010879c-53.828976 0-97.443309 43.642986-97.443309 97.428983 0 53.813626 43.614333 97.42796 97.443309 97.42796 53.770648 0 97.414657-43.614333 97.414657-97.42796C739.193931 570.653865 695.549921 527.010879 641.779274 527.010879zM641.751644 697.607278c-40.392966 0-73.140811-32.746822-73.140811-73.154114 0-40.405245 32.747845-73.166393 73.140811-73.166393 40.420595 0 73.196069 32.761148 73.196069 73.166393C714.947713 664.860457 682.172239 697.607278 641.751644 697.607278zM641.779274 599.822185c-13.606903 0-24.617677 11.039427-24.617677 24.617677 0 13.606903 11.010775 24.617677 24.617677 24.617677 13.57825 0 24.617677-11.010775 24.617677-24.617677C666.396951 610.861612 655.357524 599.822185 641.779274 599.822185zM641.779274 635.70851c-6.247284 0-11.268648-5.03569-11.268648-11.268648 0-6.218632 5.02034-11.253298 11.268648-11.253298 6.218632 0 11.267625 5.034666 11.267625 11.253298C653.046898 630.67282 647.997905 635.70851 641.779274 635.70851zM745.441215 751.877299 704.907033 677.797094 685.880701 685.45654 722.193745 751.877299 566.586734 751.877299 603.384825 695.167716 585.042061 686.383656 542.540062 751.877299 534.579763 751.877299 534.579763 772.915451 752.744551 772.915451 752.744551 751.877299Z" /></svg>
