<?xml version="1.0" standalone="no"?><!DOCTYPE svg PUBLIC "-//W3C//DTD SVG 1.1//EN" "http://www.w3.org/Graphics/SVG/1.1/DTD/svg11.dtd"><svg t="1533804582014" class="icon" style="" viewBox="0 0 1024 1024" version="1.1" xmlns="http://www.w3.org/2000/svg" p-id="2515" xmlns:xlink="http://www.w3.org/1999/xlink" width="64" height="64"><defs><style type="text/css"></style></defs><path d="M517.16565 54.30379c-246.874667 0-446.980147 200.12083-446.980147 446.980147 0 246.857271 200.10548 446.980147 446.980147 446.980147 246.841921 0 446.980147-200.122877 446.980147-446.980147C964.145797 254.42462 764.006548 54.30379 517.16565 54.30379zM518.42841 902.320707c-221.058698 0-400.259056-179.207521-400.259056-400.26622 0-221.064838 179.200358-400.26622 400.259056-400.26622 221.073024 0 400.273383 179.200358 400.273383 400.26622C918.701792 723.114209 739.501434 902.320707 518.42841 902.320707z" p-id="2516" fill="#ffffff"></path><path d="M532.62883 198.47433 500.686327 198.47433 500.686327 516.249791 500.686327 548.176944 532.62883 548.176944 771.585153 548.176944 771.585153 516.249791 532.62883 516.249791Z" p-id="2517" fill="#ffffff"></path></svg>