<?xml version="1.0" standalone="no"?><!DOCTYPE svg PUBLIC "-//W3C//DTD SVG 1.1//EN" "http://www.w3.org/Graphics/SVG/1.1/DTD/svg11.dtd"><svg t="1534471033531" class="icon" style="" viewBox="0 0 1024 1024" version="1.1" xmlns="http://www.w3.org/2000/svg" p-id="9522" xmlns:xlink="http://www.w3.org/1999/xlink" width="200" height="200"><defs><style type="text/css"></style></defs><path d="M512 38.3712c-263.47626667 0-477.06666667 213.5904-477.06666667 477.06666667 0 263.47733333 213.5904 477.06666667 477.06666667 477.06666666 263.47733333 0 477.06666667-213.58933333 477.06666667-477.06666666S775.47733333 38.3712 512 38.3712zM562.13333333 836.26666667H443.73333333V722.13333333h118.4v114.13333334z m112.84906667-386.93333334c-7.71306667 20.56746667-21.8528 42.84906667-42.4224 66.84373334L598.28266667 554.74133333c-14.86613333 16.576-25.3216 31.7088-31.88053334 45.41973334-6.57706667 13.71093333-9.60213333 31.4272-9.60213333 53.1328V666.66666667H450.13333333v-33.94026667c0-28.56106667 3.93493333-52.704 11.9424-72.416 7.99466667-19.70986667 21.67893333-40.41066667 41.10826667-62.13013333l32.55146667-36.84906667c11.99893333-13.13493333 20.4128-27.2768 25.27253333-42.42133333 4.848-15.13066667 7.28106667-31.27893333 7.28106667-48.41813334 0-21.70666667-4.86293333-39.27253333-14.57066667-52.704-9.72053333-13.4176-24.28906667-20.13973333-43.7056-20.13973333-21.7184 0-36.79466667 8.7168-46.22186667 26.1376C454.36373333 341.22026667 450.13333333 363.93066667 450.13333333 391.91573333V413.86666667H336v-20.2368c0-25.7088 3.58506667-49.40906667 10.73493333-71.12853334 7.13706667-21.70666667 17.71413333-40.2784 31.72053334-55.70453333 13.99253333-15.42506667 31.56586667-27.55626667 52.70933333-36.42133333 21.13066667-8.8512 45.98506667-13.2832 74.55893333-13.2832 60.55253333 0 105.84 14.99626667 135.83253334 44.99093333s44.992 70.1376 44.992 120.4064c0.00106667 23.99466667-3.856 46.27733333-11.56586667 66.84373333z" p-id="9523" fill="#de7946"></path></svg>