<?xml version="1.0" standalone="no"?><!DOCTYPE svg PUBLIC "-//W3C//DTD SVG 1.1//EN" "http://www.w3.org/Graphics/SVG/1.1/DTD/svg11.dtd"><svg t="1533622554345" class="icon" style="" viewBox="0 0 1024 1024" version="1.1" xmlns="http://www.w3.org/2000/svg" p-id="28590" xmlns:xlink="http://www.w3.org/1999/xlink" width="200" height="200"><defs><style type="text/css"></style></defs><path d="M466.432 18.56C351.232 133.12 284.288 210.112 186.944 320c-36.608 41.344-7.488 106.688 47.744 106.688H338.56l60.928 211.328c13.12 42.24 46.848 76.992 90.304 85.248a116.032 116.032 0 0 0 132.928-79.36l62.72-217.216h103.872c55.232 0 84.352-65.28 47.744-106.688-97.28-109.952-164.288-186.88-279.488-301.44a65.152 65.152 0 0 0-91.136 0zM853.312 853.312H170.688a85.312 85.312 0 0 0 0 170.688h682.624a85.312 85.312 0 0 0 0-170.688z" fill="#3FA9F5" p-id="28591"></path></svg>