<?xml version="1.0" standalone="no"?><!DOCTYPE svg PUBLIC "-//W3C//DTD SVG 1.1//EN" "http://www.w3.org/Graphics/SVG/1.1/DTD/svg11.dtd"><svg t="1534124553073" class="icon" style="" viewBox="0 0 1024 1024" version="1.1" xmlns="http://www.w3.org/2000/svg" p-id="5881" xmlns:xlink="http://www.w3.org/1999/xlink" width="200" height="200"><defs><style type="text/css"></style></defs><path d="M815.564 698.911h207.458v28.501h-207.458v-28.501z" p-id="5882" fill="#d4237a"></path><path d="M815.564 574.966h165.7v28.501h-165.7v-28.501z" p-id="5883" fill="#d4237a"></path><path d="M815.564 450.359h124.607v28.501h-124.607v-28.501z" p-id="5884" fill="#d4237a"></path><path d="M28.155 843.402c0 0 0-538.859 0-579.954s41.757-41.757 41.757-41.757h165.7l82.851-82.851h331.402l82.851 82.851c0 0 124.607 0 165.7 0s41.757 41.757 41.757 41.757v124.607h-41.757v-124.607h-165.7l-82.851-82.851h-331.402l-82.851 82.851h-167.69l0.662 579.954h829.168v-41.757h41.757v41.757c0 0 0 41.757-41.757 41.757s-787.41 0-828.505 0-41.093-41.757-41.093-41.757z" p-id="5885" fill="#d4237a"></path><path d="M537.85 746.633v0c-2.652-9.942 5.302-13.257 15.244-16.57 25.85-7.954 55.675-22.535 74.896-41.757 33.804-33.804 56.338-92.13 53.687-139.851-1.987-39.105-17.233-89.478-43.745-117.98-32.478-35.129-89.478-54.351-137.201-54.351-45.071 0-95.443 17.897-127.26 50.373-28.501 28.501-49.047 78.875-52.362 117.98 0 2.652 1.987 4.64 3.977 3.977l30.489-3.314c5.966-0.662 8.617 0.662 11.93 5.302 1.326 1.987 1.987 3.977 1.987 6.627 0.662 3.314-0.662 6.627-1.987 9.28l-30.489 52.362c-1.987 3.977-8.617 15.907-13.257 16.57s-15.244-7.954-18.558-11.267l-41.093-44.407c-1.987-1.987-3.977-5.302-3.977-8.617-0.662-1.987 0-4.64 0.662-6.627 1.987-5.302 5.966-6.627 11.93-7.29l19.221-2.652c1.987-0.662 3.314-1.987 3.314-3.314 1.987-55.675 26.511-110.688 73.571-149.793 81.524-68.269 202.156-62.966 277.053 11.267 80.198 80.198 79.536 210.109-0.662 290.972-24.524 24.524-53.687 41.757-85.502 51.035-8.617 1.987-19.221 1.987-21.872-7.954z" p-id="5886" fill="#d4237a"></path><path d="M501.395 582.257v-100.746c0-13.92 1.987-25.85-11.93-25.85s-11.93 11.267-11.93 25.85v102.735c0 7.29 3.314 13.257 7.954 17.897l55.675 47.722c5.302 3.314 11.267 2.652 16.57-2.652 4.64-4.64 6.627-11.93 1.987-15.907l-58.327-49.047z" p-id="5887" fill="#d4237a"></path><path d="M213.076 313.822c0 0-15.244 0-18.558 0-20.547 0-37.117 16.57-37.117 37.78 0 20.547 16.57 37.78 37.117 37.78 3.314 0 15.244 0 18.558 0 20.547 0 37.117-16.57 37.117-37.78 0-20.547-16.57-37.78-37.117-37.78zM213.076 370.823h-17.233c-11.267 0-19.884-9.28-19.884-19.884 0-11.267 9.28-19.884 19.884-19.884h17.233c11.267 0 19.884 9.28 19.884 19.884s-8.617 19.884-19.884 19.884z" p-id="5888" fill="#d4237a"></path></svg>