<?xml version="1.0" standalone="no"?><!DOCTYPE svg PUBLIC "-//W3C//DTD SVG 1.1//EN" "http://www.w3.org/Graphics/SVG/1.1/DTD/svg11.dtd"><svg t="1533871205890" class="icon" style="" viewBox="0 0 1024 1024" version="1.1" xmlns="http://www.w3.org/2000/svg" p-id="6488" xmlns:xlink="http://www.w3.org/1999/xlink" width="200" height="200"><defs><style type="text/css"></style></defs><path d="M463.910749 620.510366c-21.025872 21.041222-41.987277 42.148959-63.00087 63.202461-8.590656 8.603959-17.663288 8.615215-26.162869 0.088004a27283.829883 27283.829883 0 0 1-34.743293-34.947953c-7.980765-8.04114-8.013511-17.214057 0.026606-25.27771a92071.161672 92071.161672 0 0 1 97.877192-98.018407c8.013511-8.011464 17.047258-7.936763 25.165146 0.055258 5.906523 5.811356 11.69332 11.744485 17.661241 17.494443 6.895037 6.639211 16.322757 6.576789 22.786983 0.016373 6.363941-6.452969 6.279007-16.139585-0.402159-23.0336-5.866614-6.057973-11.776208-12.091386-17.917069-17.863856-21.456684-20.170388-49.818639-19.620873-70.654176 1.230014-32.536021 32.55444-65.104787 65.072041-97.587596 97.67867-20.150946 20.227694-20.163225 49.669236-0.097214 70.013587 12.161994 12.325723 24.416086 24.558325 36.673248 36.786834 9.393951 9.374508 20.776186 13.986549 31.892361 14.23419 15.820314 0.023536 27.504424-5.047969 37.222763-14.716167 12.274558-12.212136 24.423249-24.552186 36.637431-36.823673 9.395998-9.438976 18.894326-18.776645 28.192086-28.31386 6.249331-6.408967 6.220678-16.004509 0.24764-22.280445-6.598278-6.934946-16.548908-6.79987-23.817451 0.475837z" fill="#FF4C64" p-id="6489"></path><path d="M601.992617 385.123334c-9.594519-9.602705-21.149693-14.475689-32.68747-14.536064-15.424294 0.061398-26.889417 4.944616-36.364209 14.384615-17.7165 17.648962-35.296901 35.428907-52.933583 53.154617-4.278443 4.296863-8.685823 8.478092-12.803607 12.928451-5.509481 5.950526-5.554506 14.790868-0.364297 20.945031 6.506181 7.712659 16.97358 7.78736 24.713868 0.034792 21.113877-21.152762 42.151006-42.38125 63.274092-63.522755 7.888667-7.896854 17.377786-7.834432 25.204032 0.016373a24745.669284 24745.669284 0 0 1 35.045167 35.258015c8.229428 8.292873 8.237615 17.277502-0.069585 25.600051a120251.10898 120251.10898 0 0 1-97.550756 97.66639c-8.225335 8.226359-17.144472 8.196683-25.492604-0.008186-5.806239-5.702885-11.464099-11.556197-17.324574-17.196661-7.170307-6.903224-16.431228-6.843872-23.054066-0.033769-6.307659 6.479575-6.119371 16.054651 0.623194 22.98755 6.087649 6.259564 12.223393 12.476149 18.530028 18.504446 19.580964 18.717294 49.102325 18.7132 68.123541-0.216941 33.456996-33.286104 66.829058-66.661236 100.074229-100.165303 19.48682-19.634176 19.215644-49.383734-0.291642-69.012794a18268.903411 18268.903411 0 0 0-36.651758-36.787858z" fill="#FF4C64" p-id="6490"></path><path d="M512 12.731976c-275.738042 0-499.268024 223.529983-499.268024 499.268024s223.529983 499.268024 499.268024 499.268024 499.268024-223.529983 499.268024-499.268024S787.738042 12.731976 512 12.731976z m200.011336 733.657332c0 18.9854-15.390525 34.376948-34.377971 34.376948H277.610692c-18.9854 0-34.377972-15.393595-34.377972-34.376948V346.365612c0-18.986423 15.392572-34.377972 34.377972-34.377972h400.025742c18.9854 0 34.375925 15.390525 34.375926 34.377972v400.023696z m68.753897-68.75492c0 18.9854-15.389502 34.378995-34.375925 34.378995h-1.458211V298.697963c0-10.841929-8.788154-19.629059-19.62906-19.62906H311.986617v-1.458211c0-18.986423 15.393595-34.375925 34.378995-34.375925h400.023696c18.986423 0 34.375925 15.389502 34.375925 34.375925v400.023696z" fill="#FF4C64" p-id="6491"></path></svg>