<?xml version="1.0" standalone="no"?><!DOCTYPE svg PUBLIC "-//W3C//DTD SVG 1.1//EN" "http://www.w3.org/Graphics/SVG/1.1/DTD/svg11.dtd"><svg t="1533874878614" class="icon" style="" viewBox="0 0 1024 1024" version="1.1" xmlns="http://www.w3.org/2000/svg" p-id="33936" xmlns:xlink="http://www.w3.org/1999/xlink" width="200" height="200"><defs><style type="text/css"></style></defs><path d="M546.5088 74.752h-352.256c-23.552 0-39.168 14.592-39.168 36.5056V914.432c0 21.9136 15.6672 36.5056 39.1168 36.5056h626.2784c23.5008 0 39.1168-14.592 39.1168-36.5056V366.7968h-234.8544c-43.008 0-78.2336-32.8192-78.2336-73.0112V74.752z m78.2336 14.592v204.4416h219.2384l-219.2384-204.4416zM194.2016 1.6896h430.592c11.7248 0 19.5584 3.6864 27.392 10.9568l273.92 255.5904c7.8848 7.3216 11.776 14.592 11.776 25.6V914.432c0 62.0544-50.8928 109.5168-117.4016 109.5168H194.2016C127.6416 1024 76.8 976.5376 76.8 914.432V111.3088C76.8 49.152 127.6928 1.6896 194.2016 1.6896z m78.336 401.6128h195.6864c23.4496 0 39.1168 14.6432 39.1168 36.5056 0 21.9136-15.6672 36.5568-39.1168 36.5568H272.4864c-23.4496 0-39.1168-14.6432-39.1168-36.5568 0-21.8624 15.6672-36.5056 39.1168-36.5056z m0 146.0736h469.6576c23.5008 0 39.1168 14.592 39.1168 36.5056s-15.616 36.5056-39.1168 36.5056H272.4864c-23.4496 0-39.1168-14.592-39.1168-36.5056s15.6672-36.5056 39.1168-36.5056z m0 146.0224h469.6576c23.5008 0 39.1168 14.592 39.1168 36.5056s-15.616 36.5056-39.1168 36.5056H272.4864c-23.4496 0-39.1168-14.592-39.1168-36.5056s15.6672-36.5056 39.1168-36.5056z" fill="#F5650A" p-id="33937"></path></svg>