<?xml version="1.0" standalone="no"?><!DOCTYPE svg PUBLIC "-//W3C//DTD SVG 1.1//EN" "http://www.w3.org/Graphics/SVG/1.1/DTD/svg11.dtd"><svg t="1533874918286" class="icon" style="" viewBox="0 0 1024 1024" version="1.1" xmlns="http://www.w3.org/2000/svg" p-id="34558" xmlns:xlink="http://www.w3.org/1999/xlink" width="200" height="200"><defs><style type="text/css"></style></defs><path d="M662.656 717.056l-7.04-83.584-63.104-4.096c-7.808-26.112-19.584-50.304-34.432-72.064l37.12-49.92-59.136-59.392-51.456 37.76c-22.144-14.336-46.464-25.472-72.192-32.64l-3.712-62.976-83.456-7.552-15.36 63.232c-26.624 3.328-51.712 10.624-75.008 21.248l-44.288-46.976L121.6 468.096l29.568 59.648c-17.28 18.816-31.872 40.192-43.008 63.36l-65.536-7.552-21.888 80.896 61.824 27.136c-0.512 11.392-0.384 23.04 0.64 34.816 1.152 13.952 3.456 27.52 6.656 40.704l-55.552 36.608 35.2 76.032 64.896-18.944c15.36 20.352 33.536 38.4 54.016 53.504l-18.944 63.36 75.904 35.584 36.992-55.424c24.576 5.888 50.304 8.192 76.8 6.528l25.728 59.648 81.024-21.504-7.168-64.768c23.808-11.776 45.312-27.008 64.256-45.056l56.704 28.416 48.256-68.48-46.08-44.032c10.496-24.064 17.408-50.048 20.224-77.056l60.544-14.464z m-309.632 108.416c-66.816 5.632-125.696-43.904-131.328-110.848-5.632-66.816 43.904-125.696 110.848-131.328 66.816-5.632 125.696 43.904 131.328 110.848 5.632 66.816-44.032 125.568-110.848 131.328zM954.752 422.528l33.92-60.416-41.216-32c6.784-21.504 9.984-43.52 9.856-65.28l48.64-16.896-12.8-68.096-52.736 1.92c-8.448-20.096-19.968-38.912-34.304-55.808l26.624-44.8L879.232 37.12l-39.936 36.096c-19.712-9.984-40.32-16.768-61.184-20.224L769.664 0.384l-69.248 0.768-7.552 54.528c-20.608 4.864-40.448 12.672-58.88 23.296l-41.216-35.584-52.48 45.184 29.696 47.36c-5.76 7.552-11.008 15.616-15.744 24.064-5.632 10.112-10.368 20.48-14.336 30.976l-55.04-0.768L473.6 258.56l53.12 17.152c1.024 21.12 5.12 41.856 12.16 61.696l-42.368 34.56 35.328 59.52 50.944-20.736c14.08 15.36 30.592 28.928 49.408 40.064l-9.984 52.736 65.408 22.912 25.216-47.616c21.76 2.944 43.52 2.56 64.896-1.024l25.6 45.696 64.768-24.448-11.136-51.584c18.432-11.52 35.2-26.112 49.536-43.264l48.256 18.304z m-268.8-57.344c-55.168-30.976-74.752-100.736-43.776-155.904 30.976-55.168 100.736-74.752 155.904-43.776 55.168 30.976 74.752 100.736 43.776 155.904-30.976 55.168-100.736 74.752-155.904 43.776zM439.68 319.488l16.512-29.44-20.096-15.616c3.328-10.496 4.864-21.12 4.864-31.744l23.68-8.192-6.272-33.152-25.6 0.896c-4.096-9.728-9.728-18.944-16.64-27.136l13.056-21.76-26.24-21.504-19.456 17.536c-9.6-4.864-19.584-8.192-29.824-9.856l-4.096-25.6-33.792 0.384-3.712 26.496c-9.984 2.304-19.712 6.144-28.672 11.392l-20.096-17.28-25.6 22.016 14.464 23.04c-2.816 3.712-5.376 7.552-7.68 11.648-2.816 4.864-5.12 9.984-6.912 15.104l-26.752-0.384-5.504 33.28 25.856 8.32c0.512 10.24 2.432 20.352 5.888 29.952l-20.608 16.896 17.152 29.056 24.832-10.112c6.784 7.552 14.848 14.08 24.064 19.584l-4.864 25.728 31.872 11.136 12.288-23.168c10.624 1.408 21.248 1.28 31.616-0.512l12.416 22.272 31.616-11.904-5.376-25.088c8.96-5.632 17.152-12.672 24.192-21.12l23.424 8.832z m-130.944-27.904c-26.88-15.104-36.352-49.024-21.248-75.904 15.104-26.88 49.024-36.352 75.904-21.248 26.88 15.104 36.352 49.024 21.248 75.904-15.104 26.752-49.024 36.352-75.904 21.248z" fill="#5A6CC1" p-id="34559"></path></svg>