<?xml version="1.0" standalone="no"?><!DOCTYPE svg PUBLIC "-//W3C//DTD SVG 1.1//EN" "http://www.w3.org/Graphics/SVG/1.1/DTD/svg11.dtd"><svg t="1533874911153" class="icon" style="" viewBox="0 0 1024 1024" version="1.1" xmlns="http://www.w3.org/2000/svg" p-id="34434" xmlns:xlink="http://www.w3.org/1999/xlink" width="200" height="200"><defs><style type="text/css"></style></defs><path d="M109.738667 0H914.204444C974.904889 0 1024 49.095111 1024 109.738667V914.204444A109.738667 109.738667 0 0 1 914.261333 1024H109.795556A109.738667 109.738667 0 0 1 0 914.261333V109.795556C0 49.095111 49.095111 0 109.738667 0z m0 36.579556c-40.391111 0-73.159111 32.711111-73.159111 73.159111V914.204444c0 40.391111 32.711111 73.159111 73.159111 73.159112H914.204444c40.391111 0 73.159111-32.711111 73.159112-73.159112V109.795556c0-40.391111-32.711111-73.159111-73.159112-73.159112H109.795556z m87.267555 344.974222a18.602667 18.602667 0 0 1-8.021333-7.68 21.959111 21.959111 0 0 1-2.901333-10.922667 18.773333 18.773333 0 0 1 3.185777-10.638222 21.390222 21.390222 0 0 1 8.362667-7.395556L506.197333 190.008889a18.545778 18.545778 0 0 1 9.329778-2.56c3.242667 0 6.314667 0.853333 9.329778 2.56l305.379555 154.908444a20.252444 20.252444 0 0 1 10.922667 17.976889 21.959111 21.959111 0 0 1-10.296889 18.659556L521.671111 548.067556a10.24 10.24 0 0 1-4.551111 1.592888 41.415111 41.415111 0 0 1-5.12 0.341334 17.464889 17.464889 0 0 1-4.835556-0.625778 150.186667 150.186667 0 0 0-4.835555-1.308444L197.006222 381.553778z m318.236445-150.414222l-264.248889 133.12L512 506.311111l264.192-142.108444-260.949333-133.063111z m311.125333 264.874666c3.413333 1.706667 6.200889 4.266667 8.362667 7.68 2.104889 3.413333 3.185778 6.826667 3.185777 10.296889a21.959111 21.959111 0 0 1-2.844444 10.922667 18.602667 18.602667 0 0 1-8.078222 7.736889L518.428444 699.164444a28.216889 28.216889 0 0 1-4.835555 1.934223 21.105778 21.105778 0 0 1-15.132445-1.934223L193.194667 532.650667a21.959111 21.959111 0 0 1-10.24-18.659556c0-3.868444 0.910222-7.395556 2.844444-10.581333a19.171556 19.171556 0 0 1 8.021333-7.395556l64.967112-32.142222 43.690666 23.779556-54.613333 27.648 260.949333 142.051555 264.248889-142.051555-51.427555-26.396445 43.690666-23.779555 61.098667 30.890666z m0 143.985778c3.413333 1.706667 6.200889 4.266667 8.362667 7.736889 2.104889 3.413333 3.185778 6.826667 3.185777 10.24a21.959111 21.959111 0 0 1-2.844444 10.979555 18.602667 18.602667 0 0 1-8.078222 7.68l-308.565334 166.513778a28.216889 28.216889 0 0 1-4.835555 1.934222 21.105778 21.105778 0 0 1-15.132445-1.934222l-305.322666-166.513778a21.959111 21.959111 0 0 1-10.24-18.659555c0-3.811556 0.910222-7.395556 2.844444-10.581333a19.171556 19.171556 0 0 1 8.021334-7.395556l61.098666-27.648 43.690667 23.779556-50.744889 23.153777 260.949333 142.051556 264.248889-142.051556-48.241778-23.779555 43.747556-23.779556 57.856 28.273778z" fill="#2392F7" p-id="34435"></path></svg>