<?xml version="1.0" standalone="no"?><!DOCTYPE svg PUBLIC "-//W3C//DTD SVG 1.1//EN" "http://www.w3.org/Graphics/SVG/1.1/DTD/svg11.dtd"><svg t="1533874895712" class="icon" style="" viewBox="0 0 1024 1024" version="1.1" xmlns="http://www.w3.org/2000/svg" p-id="34184" xmlns:xlink="http://www.w3.org/1999/xlink" width="200" height="200"><defs><style type="text/css"></style></defs><path d="M512 0a512 512 0 1 0 0 1024A512 512 0 0 0 512 0z m0.832 870.4c-39.488 0-71.488-29.952-71.488-66.88 0-36.992 32-66.944 71.488-66.944s71.488 29.952 71.488 66.944c0 36.928-32 66.88-71.488 66.88zM584.32 630.08c0 36.992-32 66.944-71.488 66.944s-71.488-29.952-71.488-66.944l0.064-1.024-56.832-316.288h0.832a114.304 114.304 0 0 1-0.832-13.184c0-66.496 57.408-120.384 128.256-120.384s128.192 53.888 128.192 120.384c0 4.48-0.32 8.832-0.832 13.184h0.832L584.192 629.12l0.128 1.024z" fill="#F44336" p-id="34185"></path></svg>